<svg width="145" height="40" viewBox="0 0 145 40" fill="none" xmlns="http://www.w3.org/2000/svg">
<path d="M106 0H144.46V38.46H106V0Z" fill="black"/>
<path d="M121.385 1.98837C117.792 4.25293 116.46 7.21082 115.037 10.6264C113.586 14.1084 112.061 18.0337 108.028 21.6503C108.486 22.4679 109.516 23.2601 110.993 23.9334C111.802 23.232 112.615 22.4459 113.387 21.6574L110.94 22.1467L110.675 20.8208C112.372 20.4221 114.174 20.121 115.737 19.8083C115.85 18.8882 116.018 18.1378 116.288 17.326C119.258 16.6476 122.526 15.4534 125.23 15.4253C128.942 15.7627 131.412 16.5377 134.204 17.3353C134.417 18.1672 134.586 19.0635 134.675 19.7987C136.289 20.016 138.048 20.4733 139.785 20.8208L139.52 22.1467L137.073 21.6574C137.845 22.4459 138.658 23.232 139.467 23.9335C140.944 23.2601 141.974 22.4679 142.432 21.6503C138.399 18.0338 136.874 14.1084 135.423 10.6264C134 7.21082 132.668 4.25293 129.075 1.98837C128.253 3.30931 126.81 5.3048 125.23 5.33357C123.402 5.1152 122.262 3.42424 121.385 1.98837H121.385ZM118.845 5.55892H120.197V6.82389L122.393 8.02163C123.041 7.03677 124.048 6.38521 125.23 6.38521C126.412 6.38521 127.419 7.03677 128.067 8.02163L130.263 6.82389V5.55892H131.615V6.68568H132.742V8.03778H130.861L128.633 9.25303C128.838 10.0341 128.888 10.7596 128.767 11.4983L132.614 13.5965H134.244V14.9486H133.117V16.0753H131.765V14.6738L128.351 12.8116C127.74 14.0705 126.602 14.9486 125.23 14.9486C123.858 14.9486 122.72 14.0705 122.109 12.8115L118.695 14.6739V16.0754H117.343V14.9486H116.216V13.5965H117.846L121.693 11.4984C121.571 10.7455 121.632 9.93021 121.827 9.25311L119.599 8.03786H117.718V6.68575H118.845V5.55892ZM125.23 7.73732C124.062 7.73732 122.976 8.97239 122.976 10.6669C122.976 12.3614 124.062 13.5965 125.23 13.5965C126.398 13.5965 127.484 12.3614 127.484 10.6669C127.484 8.97239 126.398 7.73732 125.23 7.73732V7.73732ZM123.352 9.46501H124.704V10.6669H123.352V9.46501ZM125.756 9.46501H127.108V10.6669H125.756V9.46501ZM124.028 11.1927H126.432V12.5448H124.028V11.1927ZM117.367 18.4246C117.275 18.7647 117.202 19.1439 117.146 19.5521C122.989 18.3137 127.312 18.2864 133.269 19.5457C133.215 19.1626 133.149 18.7859 133.068 18.4178C126.944 16.2524 123.499 16.2651 117.367 18.4246V18.4246ZM117.025 20.9352C116.993 21.6458 116.999 22.4134 117.038 23.2127C117.395 23.2157 117.74 23.2151 118.077 23.212C118.572 22.2386 122.118 21.4174 123.755 22.7317C126.085 22.2793 127.792 21.5043 129.481 20.3861C125.213 19.6224 120.35 20.4603 117.025 20.9353V20.9352ZM124.302 23.9694C124.095 26.0809 122.644 27.4931 120.423 27.4931C119.115 27.4931 118.316 26.341 118.087 24.5621C117.775 24.5655 117.458 24.5673 117.13 24.5653C117.375 26.9508 117.809 29.5067 118.273 31.612C119.237 31.5314 120.555 31.0198 121.747 30.3576C122.887 29.7242 123.937 28.9566 124.53 28.4256C123.995 28.3794 123.468 28.2842 122.952 28.1462L123.301 26.8401C124.557 27.1761 125.814 27.2192 127.15 26.8424L127.517 28.1438C126.999 28.2897 126.469 28.3851 125.933 28.4286C126.527 28.9593 127.575 29.7254 128.713 30.3576C129.909 31.0221 131.233 31.5351 132.197 31.6132C132.985 28.1854 133.627 24.3607 133.409 20.9315L131.763 20.6964C130.394 21.4461 127.224 23.3461 124.302 23.9694V23.9694ZM134.791 21.201C134.825 21.8627 134.831 22.5315 134.81 23.205C135.381 23.8812 136.038 24.5521 136.782 25.219C136.554 25.0916 136.296 25.0143 136.018 25.0143C134.68 25.1689 134.122 26.3874 134.111 27.4931C134.153 28.6946 134.854 29.9459 136.018 29.972C136.147 29.972 136.271 29.9547 136.39 29.9243C136.787 31.5078 137.408 32.6541 138.669 33.6325C137.06 34.8051 133.896 34.9173 132.207 34.7239C131.81 35.1207 131.403 35.506 130.984 35.8794C134.497 36.3181 139.265 36.3386 140.53 33.2594C139.048 32.401 138.031 30.9741 137.727 29.7402C139.778 30.1934 141.499 28.9989 141.53 27.1314C138.971 26.2913 136.047 22.3321 134.791 21.201V21.201ZM115.648 21.2053C113.429 23.6035 111.137 25.6601 108.545 27.388C110.061 29.04 112.561 29.2132 114.193 28.767C112.206 31.8324 110.734 33.1396 108.081 34.9086C111.78 35.9623 116.212 36.697 119.498 35.8991C119.088 35.5337 118.688 35.1567 118.299 34.7686C115.92 35.0661 113.358 34.9048 111.143 34.4228C113.956 32.2297 115.126 29.9808 116.182 27.8696C116.113 27.4302 116.05 26.9899 115.992 26.5489L115.313 26.8884C113.556 27.767 111.893 27.8809 110.827 27.4674C112.838 26.0519 114.456 24.6263 115.674 23.1762C115.639 22.4977 115.631 21.8394 115.648 21.2053H115.648ZM131.212 22.6856L132.168 23.6417C131.687 24.1228 131.102 24.4392 130.488 24.6475V25.9157H128.084V25.0333C127.618 25.0493 127.202 25.0416 126.883 25.0416V23.6895C128.084 23.6895 130.329 23.5688 131.212 22.6856V22.6856ZM137.363 25.7239C138.183 26.4169 139.096 27.1064 140.103 27.7936C139.632 28.6357 138.474 28.5684 137.807 28.3681C138.035 27.4941 137.845 26.38 137.363 25.724V25.7239ZM136.018 26.3664C136.439 26.51 136.568 27.1136 136.573 27.4931C136.54 27.7981 136.456 28.6101 136.018 28.6199C135.597 28.4763 135.467 27.8726 135.463 27.4931C135.495 27.1882 135.579 26.3761 136.018 26.3664ZM125.23 29.9803C124.759 30.625 124.168 31.23 123.511 31.7736C124.184 31.532 124.685 31.395 125.232 31.3965C125.781 31.398 126.281 31.5377 126.956 31.7793C126.296 31.2343 125.703 30.6273 125.23 29.9803V29.9803ZM127.767 32.396L127.397 33.3845C126.481 33.042 125.953 32.8534 125.562 32.7823L128.022 36.4717C129.133 35.7338 130.104 34.8948 131.032 33.9855C129.779 33.5753 128.704 33.0511 127.767 32.396V32.396ZM122.692 32.397C121.667 33.0589 120.477 33.7038 119.428 33.9855C120.413 34.9345 121.359 35.763 122.438 36.4717L124.899 32.7795C124.51 32.848 123.984 33.0353 123.066 33.3835L122.692 32.397Z" fill="white"/>
<path d="M53 1H91.46V39.46H53V1Z" fill="black"/>
<path d="M72.23 2.87793C71.7342 2.87793 71.0206 3.16112 70.2694 3.68093C69.5258 4.20074 68.7446 4.93464 68.046 5.71586C67.415 6.43097 66.8516 7.18515 66.4309 7.84543C66.8065 7.67341 67.1821 7.51942 67.5652 7.38196L67.6328 7.35116C69.1502 6.69163 70.6826 6.35586 72.2225 6.35586C73.7624 6.35435 75.3023 6.68412 76.8272 7.35191L76.8873 7.3782C77.2704 7.51642 77.6535 7.67191 78.029 7.84543C77.6084 7.18515 77.045 6.43097 76.414 5.71586C75.7154 4.93464 74.9342 4.20074 74.1906 3.68093C73.4394 3.16112 72.7258 2.87793 72.23 2.87793V2.87793ZM72.23 7.92806C71.0056 7.92806 69.7887 8.10609 68.6093 8.46139C68.6845 9.71359 69.0075 11.1934 69.5859 12.3577C70.2469 13.6798 71.1258 14.5061 72.23 14.5061C73.3342 14.5061 74.2131 13.6798 74.8741 12.3577C75.4525 11.1934 75.7755 9.71359 75.8506 8.46139C74.6713 8.10609 73.4544 7.92806 72.23 7.92806V7.92806ZM67.2723 8.95491C66.7389 9.18777 66.2131 9.4582 65.7098 9.77369C65.8075 11.2084 66.491 12.3652 67.5727 13.2065C68.0009 13.5446 68.4967 13.8225 69.0375 14.0328C68.7896 13.7023 68.5718 13.3342 68.384 12.9587C67.753 11.7117 67.3924 10.277 67.2723 8.95491V8.95491ZM77.1877 8.95491C77.0675 10.277 76.707 11.7117 76.076 12.9587C75.8882 13.3418 75.6628 13.7098 75.415 14.0479C75.9708 13.83 76.4741 13.5521 76.9098 13.2065C77.9765 12.3652 78.6525 11.2084 78.7502 9.77369C78.2469 9.4582 77.7211 9.18777 77.1877 8.95491V8.95491ZM67.3173 14.6788C65.5596 14.9493 63.8018 15.3699 62.0366 15.9333L60.0174 33.075L62.3596 33.8563L64.3502 18.938L65.6948 19.0732L64.6882 34.2018C66.461 34.63 69.353 34.8779 72.23 34.8779C75.107 34.8779 77.999 34.63 79.7718 34.2018L78.7652 19.0732L80.1098 18.938L82.1004 33.8563L84.4365 33.0826L82.4234 15.9333C80.6657 15.3774 78.9154 14.9493 77.1652 14.6788C76.8572 14.8741 76.5342 15.0394 76.1962 15.1896C75.9483 16.0835 75.9783 17.1427 76.1962 18.1267C76.4741 19.3812 77.0751 20.5154 77.5182 20.9511L76.5567 21.9126C75.7981 21.1464 75.1971 19.8769 74.8741 18.4272C74.6788 17.5483 74.5887 16.5943 74.7089 15.6704C73.9276 15.8432 73.0938 15.9108 72.23 15.8582C71.3661 15.9108 70.5323 15.8356 69.7511 15.6629C69.8713 16.5868 69.7812 17.5408 69.5859 18.4272C69.2629 19.8769 68.6619 21.1464 67.9032 21.9126L66.9417 20.9511C67.3849 20.5154 67.9859 19.3812 68.2638 18.1267C68.4816 17.1352 68.5117 16.076 68.2638 15.1746C67.9333 15.0319 67.6178 14.8666 67.3173 14.6788V14.6788ZM68.0835 26.2769H76.3765L77.6985 32.0985L76.3765 32.399L75.2948 27.629H69.1652L68.0835 32.399L66.7615 32.0985L68.0835 26.2769ZM59.8567 34.4422L59.6892 35.8619C59.6929 35.8394 59.741 35.9896 59.9881 36.1849C60.2435 36.3802 60.6394 36.583 61.0225 36.7182C61.4056 36.8384 61.7812 36.8835 61.954 36.8685L62.1718 35.2159L59.8567 34.4422ZM84.6018 34.4422L82.2882 35.2159L82.506 36.8685C82.6788 36.8835 83.0544 36.8384 83.4375 36.7182C83.8206 36.583 84.2187 36.3802 84.4741 36.1849C84.722 35.9896 84.767 35.8394 84.767 35.8619L84.6018 34.4422ZM64.5981 35.5689L64.5004 37.0112V37.0187C64.538 37.0562 64.6582 37.1464 64.8385 37.2365C65.199 37.4168 65.815 37.5971 66.5737 37.7473C68.0835 38.0328 70.1568 38.183 72.23 38.183C74.3032 38.183 76.3765 38.0328 77.8863 37.7473C78.645 37.5971 79.261 37.4168 79.6215 37.2365C79.8018 37.1464 79.922 37.0562 79.9595 37.0187V37.0112L79.8619 35.5689C77.8713 36.0271 75.0619 36.23 72.23 36.23C69.3981 36.23 66.5887 36.0271 64.5981 35.5689Z" fill="white"/>
<path d="M0 1H38.46V39.46H0V1Z" fill="black"/>
<path d="M15.3281 17.0679C14.4206 16.8035 13.554 16.5782 12.7283 16.3919C12.3879 15.3148 12.2161 14.1915 12.219 13.0619C12.219 8.13348 15.3866 4.138 19.2942 4.138C23.2018 4.138 26.3665 8.12973 26.3665 13.0589C26.3688 14.1355 26.2129 15.2066 25.9038 16.2379C24.8762 16.4532 23.7815 16.7299 22.6197 17.0679C20.9671 17.5502 19.6308 18.0279 18.972 18.2736C18.317 18.0279 16.9806 17.5502 15.3281 17.0679ZM5.71681 23.4484C4.89728 23.4484 4.09616 23.6914 3.41475 24.1467C2.73335 24.6021 2.20227 25.2492 1.88868 26.0064C1.57509 26.7635 1.49308 27.5967 1.65302 28.4005C1.81296 29.2042 2.20766 29.9425 2.78721 30.522C3.36676 31.1014 4.10512 31.496 4.90893 31.6558C5.71273 31.8156 6.54586 31.7334 7.30297 31.4197C8.06008 31.106 8.70714 30.5748 9.16234 29.8933C9.61754 29.2118 9.86043 28.4106 9.86028 27.5911C9.86008 26.4923 9.42345 25.4386 8.64642 24.6617C7.86939 23.8848 6.8156 23.4484 5.71681 23.4484V23.4484ZM32.7432 23.4484C31.9237 23.4484 31.1226 23.6914 30.4412 24.1467C29.7598 24.6021 29.2287 25.2492 28.9151 26.0064C28.6015 26.7635 28.5195 27.5967 28.6794 28.4005C28.8394 29.2042 29.2341 29.9425 29.8136 30.522C30.3932 31.1014 31.1315 31.496 31.9353 31.6558C32.7391 31.8156 33.5723 31.7334 34.3294 31.4197C35.0865 31.106 35.7336 30.5748 36.1888 29.8933C36.644 29.2118 36.8868 28.4106 36.8867 27.5911C36.8865 26.4924 36.45 25.4388 35.6731 24.662C34.8962 23.8851 33.8426 23.4486 32.744 23.4484H32.7432ZM27.3986 27.5911C27.3998 26.5576 27.7002 25.5466 28.2635 24.6801C28.8268 23.8137 29.629 23.1289 30.5731 22.7085V16.8831C25.7288 16.8831 18.972 19.5603 18.972 19.5603C18.972 19.5603 12.2152 16.8831 7.37089 16.8831V22.5109C8.44316 22.8603 9.37741 23.54 10.0399 24.4526C10.7024 25.3652 11.0592 26.4641 11.0592 27.5918C11.0592 28.7196 10.7024 29.8184 10.0399 30.7311C9.37741 31.6437 8.44316 32.3234 7.37089 32.6728V33.1986C12.2152 33.1986 18.972 36.322 18.972 36.322C18.972 36.322 25.7318 33.2008 30.5731 33.2008V32.4737C29.629 32.0533 28.8268 31.3685 28.2635 30.502C27.7002 29.6356 27.3998 28.6246 27.3986 27.5911V27.5911Z" fill="white"/>
</svg>
