<svg width="140" height="39" viewBox="0 0 140 39" fill="none" xmlns="http://www.w3.org/2000/svg">
<path d="M0 0H38.46V38.46H0V0Z" fill="black"/>
<path fill-rule="evenodd" clip-rule="evenodd" d="M18.5374 1.40138V9.00474C19.1374 9.02472 19.7395 9.0248 20.3402 9.00474V1.40131H18.5374V1.40138ZM13.1173 9.69477V12.0094H25.7605V9.69477C21.5724 10.651 17.2645 10.6415 13.1173 9.69477ZM1.82872 12.3286L2.53054 15.1526L12.4601 15.7605L13.1666 15.8027L13.1174 16.5093C12.9226 19.3695 13.5123 22.4189 15.0376 24.9554L15.6104 13.953L1.82864 12.3286H1.82872ZM36.6219 12.3286L23.263 13.9038L23.8028 24.2582C25.039 21.8713 25.5107 19.1124 25.3333 16.5093L25.2864 15.8028L25.9906 15.7606L35.9202 15.1526L36.622 12.3286H36.6219ZM17.0446 13.4131L16.2441 28.784V32.1032L19.5774 37.1007L22.8097 32.1924L21.8332 13.4131H20.1408V32.2628H18.737V13.4131H17.0446V13.4131ZM2.86842 16.5799C3.13283 17.4237 3.47258 18.3095 3.87085 19.2042L11.7206 18.561C11.6937 18.0787 11.6866 17.5969 11.6996 17.1197L2.86849 16.5799H2.86842ZM35.5821 16.5799L26.7511 17.1197C26.764 17.5969 26.7569 18.0787 26.7301 18.561L34.5798 19.2042C34.9779 18.3095 35.3178 17.4237 35.582 16.5798L35.5821 16.5799ZM11.8568 19.9601L4.51634 20.5611C4.92542 21.3706 5.37463 22.174 5.85207 22.9505L12.1666 21.5774C12.0363 21.0428 11.9323 20.5016 11.8567 19.9601H11.8568ZM26.5938 19.9601C26.5185 20.5015 26.4165 21.0429 26.2864 21.5774L32.5985 22.9505C33.076 22.174 33.5253 21.3706 33.9343 20.5611L26.5938 19.9601ZM12.5588 22.9295L6.66664 24.2112C7.16948 24.9474 7.69349 25.6422 8.22532 26.2746L13.1033 24.2958C12.8986 23.8485 12.717 23.3927 12.5587 22.9296L12.5588 22.9295ZM25.8921 22.9295C25.7339 23.3927 25.5521 23.8483 25.3475 24.2957L30.2254 26.2746C30.7573 25.6424 31.2813 24.9475 31.7841 24.2113L25.8921 22.9296L25.8921 22.9295Z" fill="white"/>
<path d="M51 0H89.46V38.46H51V0Z" fill="black"/>
<path d="M78.129 6.85406L76.7768 6.86856L76.8084 9.79663C73.3701 10.7946 68.6557 11.2793 64.3033 11.5674C66.9397 18.8 71.7668 24.6205 76.1602 30.8823C77.7165 29.4058 79.9994 28.4798 82.4295 28.1773C80.8671 26.817 79.6776 26.0766 78.0101 22.8862C80.359 25.6719 81.9597 26.5269 83.8409 27.5439C84.086 26.5603 84.5123 25.6932 85.2472 25.0895C85.8982 24.5547 86.7515 24.2892 87.7659 24.3125C84.2448 19.8233 80.1287 15.5197 78.1637 10.0827L78.129 6.85414V6.85406ZM63.2629 7.73106L61.9109 7.74939C61.9109 7.74939 61.9297 9.12704 61.953 10.5265C61.9647 11.2263 61.9774 11.9314 61.9897 12.4742C61.9942 12.6722 61.9985 12.8182 62.0028 12.9656C59.4204 19.2554 56.8081 25.0589 52.6943 30.5011C55.2208 30.3969 57.6765 30.4107 60.0972 30.498C61.7696 25.7944 61.8509 20.3681 62.7734 15.3239C63.631 20.4741 63.5671 25.7986 65.2886 30.7853C68.5158 31.0168 71.7254 31.326 75.005 31.606C70.8232 25.6604 66.1252 19.9601 63.353 12.8744C63.3492 12.7405 63.3454 12.6193 63.3415 12.4435C63.3294 11.9059 63.3165 11.2023 63.3049 10.5039C63.2816 9.1072 63.2629 7.73106 63.2629 7.73106V7.73106Z" fill="white"/>
<path d="M101 0H139.46V38.46H101V0Z" fill="black"/>
<path d="M111.11 5.51173C109.794 5.93614 108.764 6.40217 107.495 7.33332C107.331 7.49084 107.17 7.65032 107.012 7.81452C107.03 7.85704 107.057 7.90955 107.098 7.98354C107.175 8.12115 107.306 8.28573 107.472 8.44851C107.212 8.86436 106.976 9.28021 106.758 9.69726C106.483 9.4689 106.236 9.21478 106.037 8.92956C105.465 9.64355 104.95 10.4077 104.502 11.2161C104.532 11.339 104.619 11.473 104.786 11.6526C104.986 11.8669 105.297 12.0882 105.66 12.2771C105.507 12.7366 105.377 13.1938 105.27 13.6502C104.711 13.3963 104.2 13.0667 103.798 12.6479C103.352 13.6849 103.011 14.7828 102.791 15.9273C102.891 16.1101 103.07 16.2775 103.34 16.4555C103.721 16.7064 104.269 16.9119 104.864 17.0307C104.86 17.5142 104.883 17.9938 104.925 18.4672C104.068 18.3415 103.242 18.073 102.568 17.6292C102.564 17.6266 102.56 17.6247 102.556 17.6221C102.458 18.7932 102.491 19.9478 102.638 21.0705C102.812 21.3319 103.102 21.5179 103.535 21.6667C104.091 21.858 104.848 21.9179 105.617 21.8404C105.768 22.3003 105.938 22.7516 106.129 23.1925C105.08 23.3501 104.008 23.3144 103.08 22.9953C103.054 22.9866 103.03 22.9764 103.005 22.9672C103.303 24.1307 103.73 25.2485 104.27 26.3028C104.537 26.5134 104.897 26.6195 105.376 26.6526C106.074 26.7009 106.964 26.5226 107.812 26.1761C108.091 26.571 108.385 26.9528 108.695 27.3216C107.6 27.826 106.414 28.1235 105.31 28.054C106.057 29.1509 106.935 30.1546 107.927 31.0399C108.247 31.1486 108.626 31.15 109.082 31.061C109.803 30.9203 110.649 30.5048 111.413 29.9342C111.414 29.9346 111.415 29.9338 111.415 29.9342C111.803 30.233 112.202 30.5164 112.61 30.7793C111.711 31.5237 110.685 32.1085 109.641 32.3733C110.516 32.9652 111.455 33.4752 112.446 33.8896C112.817 33.9214 113.219 33.8175 113.674 33.5962C114.25 33.3156 114.859 32.8261 115.404 32.223C116.683 32.7325 118.013 33.0658 119.352 33.1924L119.486 31.7934C118.414 31.6919 117.338 31.435 116.289 31.0468C116.806 30.2124 117.161 29.3062 117.261 28.5351C117.349 27.8505 117.267 27.3215 116.976 26.9248C116.369 26.8061 115.783 26.6288 115.221 26.399C115.208 26.885 115.092 27.3745 114.904 27.8333C114.622 28.517 114.188 29.1702 113.662 29.7653C113.26 29.5183 112.868 29.2521 112.486 28.9671C112.983 28.4277 113.381 27.8426 113.605 27.298C113.891 26.6035 113.919 26.0528 113.652 25.5846C113.07 25.2123 112.525 24.7781 112.021 24.2911C111.888 24.6141 111.707 24.9198 111.493 25.1996C111.081 25.7378 110.548 26.2144 109.948 26.6197C109.639 26.2651 109.343 25.8983 109.066 25.5163C109.603 25.1637 110.064 24.7577 110.378 24.3474C110.756 23.852 110.92 23.4152 110.864 22.9882C110.49 22.496 110.151 21.968 109.85 21.4107C109.678 21.6125 109.485 21.7968 109.274 21.9578C108.767 22.3465 108.163 22.6455 107.516 22.8615C107.321 22.4341 107.144 21.9978 106.99 21.5517C107.548 21.371 108.052 21.1248 108.42 20.8428C108.848 20.5151 109.081 20.2009 109.136 19.8475C108.908 19.2467 108.722 18.6216 108.58 17.9765C108.439 18.0572 108.293 18.1285 108.143 18.1878C107.583 18.4091 106.96 18.5208 106.319 18.5446C106.269 18.0818 106.242 17.6129 106.242 17.1384C106.764 17.1186 107.253 17.0304 107.627 16.8826C107.972 16.7459 108.197 16.5971 108.329 16.4131C108.252 15.683 108.229 14.9341 108.267 14.1736C108.219 14.1815 108.171 14.1872 108.122 14.1924C107.624 14.2469 107.104 14.2037 106.589 14.0915C106.692 13.6423 106.82 13.1894 106.972 12.7347C107.338 12.8048 107.688 12.8266 107.969 12.7958C108.166 12.7744 108.31 12.7391 108.42 12.6902C108.525 12.0194 108.676 11.3649 108.868 10.7348C108.554 10.6795 108.246 10.5776 107.948 10.4437C108.161 10.0338 108.393 9.62282 108.65 9.2114C108.831 9.28374 109.004 9.33647 109.152 9.35938C109.236 9.37215 109.304 9.37929 109.361 9.38042C109.508 9.03187 109.664 8.69159 109.833 8.3616C110.276 7.47507 110.766 6.54001 111.11 5.51188V5.51173ZM129.467 5.51173C129.811 6.53978 130.301 7.47492 130.744 8.36153C130.914 8.69152 131.072 9.0318 131.218 9.38027C131.275 9.37906 131.343 9.37178 131.425 9.35923C131.573 9.33625 131.747 9.28412 131.929 9.21125C132.186 9.62267 132.418 10.0336 132.631 10.4436C132.333 10.5778 132.023 10.6795 131.709 10.7348C131.901 11.365 132.052 12.0193 132.157 12.6901C132.268 12.7395 132.413 12.7742 132.61 12.7958C132.891 12.8266 133.242 12.8049 133.608 12.7348C133.76 13.1902 133.885 13.644 133.988 14.094C133.475 14.2057 132.954 14.247 132.458 14.1926C132.408 14.1872 132.359 14.1818 132.31 14.1739C132.349 14.9344 132.328 15.6831 132.251 16.4133C132.383 16.5973 132.608 16.746 132.953 16.8827C133.326 17.0304 133.814 17.1186 134.336 17.1386C134.335 17.613 134.308 18.0821 134.258 18.5448C133.618 18.5208 132.996 18.409 132.437 18.188C132.287 18.1286 132.141 18.0573 132 17.9766C131.858 18.6207 131.671 19.2453 131.444 19.8451C131.497 20.1997 131.729 20.5146 132.157 20.8428C132.526 21.1248 133.029 21.3709 133.587 21.5517C133.434 21.9979 133.256 22.4341 133.061 22.8615C132.415 22.6456 131.813 22.3461 131.305 21.9579C131.095 21.7965 130.9 21.613 130.728 21.4108C130.427 21.9683 130.088 22.4958 129.714 22.9883C129.657 23.4151 129.821 23.8523 130.2 24.3475C130.513 24.7574 130.975 25.164 131.512 25.5166C131.234 25.8985 130.939 26.2652 130.629 26.6198C130.029 26.2145 129.496 25.7379 129.085 25.1996C128.872 24.9206 128.692 24.6154 128.559 24.2934C128.055 24.78 127.509 25.2126 126.927 25.5845C126.661 26.0528 126.688 26.6035 126.974 27.2981C127.199 27.8427 127.597 28.4277 128.094 28.9672C127.712 29.2523 127.318 29.5181 126.916 29.7653C126.39 29.1702 125.958 28.517 125.676 27.8333C125.488 27.3746 125.372 26.885 125.359 26.3991C124.796 26.6293 124.209 26.8061 123.601 26.9249C123.31 27.3216 123.229 27.8507 123.317 28.5352C123.417 29.3062 123.774 30.2126 124.291 31.047C123.242 31.4352 122.166 31.692 121.094 31.7934L121.226 33.1925C122.566 33.0658 123.896 32.7331 125.176 32.223C125.721 32.8261 126.33 33.3156 126.906 33.5962C127.361 33.8175 127.763 33.9214 128.134 33.8896C129.126 33.4752 130.063 32.9655 130.939 32.3732C129.895 32.1088 128.869 31.5249 127.97 30.7815C128.379 30.5182 128.777 30.2336 129.165 29.9341C129.929 30.5053 130.776 30.9201 131.498 31.0609C131.953 31.1497 132.331 31.1499 132.65 31.0421C133.643 30.1566 134.522 29.1513 135.27 28.0539C134.166 28.1234 132.977 27.826 131.883 27.3216C132.192 26.9525 132.489 26.5711 132.768 26.176C133.616 26.5223 134.506 26.7008 135.204 26.6524C135.683 26.6194 136.043 26.5133 136.31 26.3027C136.85 25.2483 137.276 24.1305 137.575 22.967C137.55 22.9763 137.525 22.9865 137.5 22.9952C136.572 23.3142 135.5 23.35 134.451 23.1924C134.641 22.7514 134.812 22.3001 134.963 21.8403C135.731 21.9174 136.487 21.8575 137.042 21.6665C137.475 21.5178 137.767 21.3319 137.941 21.0703C138.089 19.9476 138.12 18.7929 138.021 17.622C138.018 17.6241 138.015 17.6269 138.012 17.629C137.338 18.0728 136.512 18.3414 135.655 18.467C135.697 17.9937 135.719 17.514 135.716 17.0304C136.311 16.9116 136.859 16.7061 137.239 16.4553C137.509 16.2775 137.686 16.1094 137.787 15.927C137.566 14.7827 137.225 13.6846 136.779 12.6478C136.378 13.0662 135.868 13.396 135.31 13.6502C135.203 13.1936 135.072 12.7364 134.92 12.2769C135.281 12.0881 135.592 11.8664 135.791 11.6524C135.957 11.4739 136.047 11.3407 136.078 11.2182C135.629 10.4089 135.115 9.64415 134.542 8.92941C134.344 9.21456 134.097 9.46875 133.822 9.69711C133.603 9.27998 133.367 8.86406 133.108 8.44821C133.274 8.28551 133.405 8.1207 133.481 7.98324C133.522 7.91037 133.55 7.85884 133.568 7.81663C133.41 7.65189 133.247 7.49107 133.082 7.3331C131.813 6.40194 130.783 5.93592 129.467 5.51151L129.467 5.51173ZM112.479 10.0892L114.289 19.8333H126.615L128.336 10.4812L123.984 15.2511L120.606 10.2043L117.225 15.2512L112.479 10.0893L112.479 10.0892ZM114.549 21.2371L114.817 22.6806H126.091L126.357 21.237H114.549L114.549 21.2371Z" fill="white"/>
</svg>
