<svg width="139" height="39" viewBox="0 0 139 39" fill="none" xmlns="http://www.w3.org/2000/svg">
<path d="M0 0H38.4554V38.4554H0V0Z" fill="black"/>
<path d="M7.38646 1.2534C5.98554 3.28861 5.14478 5.18321 4.9196 6.72669L6.71755 9.6677L8.86745 7.15383C8.93264 5.56056 8.4551 3.49778 7.38646 1.2531V1.2534ZM35.4887 1.47399C33.3511 2.70802 31.7792 4.05584 30.9117 5.35146L31.2685 8.783L34.2917 7.43571C35.0345 6.0254 35.4887 3.95895 35.4887 1.47399H35.4887ZM28.5975 3.52294C27.8349 5.10292 27.3357 6.59037 27.0836 7.90281L28.4637 12.2355L29.9494 9.66305L29.4612 4.98981H29.4634C29.2064 4.50972 28.9187 4.02046 28.5974 3.52294H28.5975ZM2.04671 6.06739C2.03732 7.82222 2.22645 9.37981 2.56308 10.6726L5.67069 13.9889L5.9054 11.0292L3.45499 7.02036L3.45725 7.01796C3.01936 6.69597 2.54994 6.37804 2.04671 6.06731V6.06739ZM12.0244 6.85843C11.3924 7.12161 10.8009 7.40018 10.2523 7.69168L7.30429 11.1444L7.07191 14.1017L10.8602 11.1654C11.3643 9.97092 11.7683 8.51689 12.0244 6.85843ZM25.3351 8.48272C23.5307 12.8458 24.1213 15.8328 25.9264 16.632L27.5155 13.8811L26.0438 9.26663C25.8205 9.00675 25.585 8.74515 25.3349 8.48265L25.3351 8.48272ZM36.3031 8.49909C35.9614 8.49699 35.6294 8.5054 35.3057 8.52012L31.1651 10.3649L29.6794 12.9396L34.3619 11.914C35.3306 11.0525 36.3215 9.91421 37.2653 8.52711C36.938 8.51089 36.6163 8.50097 36.303 8.49902L36.3031 8.49909ZM19.3216 9.15404C17.5761 10.8994 16.405 12.6092 15.9019 14.0853L17.1364 17.3079L19.7066 15.2237C20.0593 13.6686 19.9647 11.5542 19.3216 9.15404ZM1.23224 11.9467C1.47859 16.6613 3.29636 19.1053 5.26931 19.0515L5.52047 15.8804L2.21097 12.3503C1.8974 12.2118 1.57143 12.0764 1.23231 11.9467H1.23224ZM11.9892 12.8011C11.5043 12.9028 11.0406 13.0186 10.5997 13.1438L6.92169 15.9932L6.67293 19.129C8.6627 19.6931 10.9661 17.5843 11.9891 12.8011L11.9892 12.8011ZM13.1955 12.9185C12.868 14.6411 12.7711 16.2054 12.867 17.5376L15.3221 21.3681L16.0897 18.4999L14.4068 14.1108H14.409C14.0371 13.7142 13.634 13.3153 13.1956 12.9185H13.1955ZM33.28 13.5898L28.7313 14.5826L27.1588 17.3052C28.7122 18.6718 31.6982 17.7585 34.679 13.8784C34.1973 13.7619 33.7311 13.6664 33.28 13.5898ZM22.8634 15.5073C22.1941 15.6515 21.5637 15.8197 20.9717 16.0073L17.4438 18.8637L16.6762 21.732L20.9341 19.5326C21.6471 18.4493 22.3103 17.0924 22.8633 15.5074L22.8634 15.5073ZM34.5146 17.3897C32.573 18.9162 31.2064 20.4737 30.5316 21.8799L31.3743 25.2246L34.1744 23.4618C34.7096 21.9604 34.8681 19.85 34.5146 17.3898V17.3897ZM25.2506 18.0353C22.6642 23.8617 20.7896 29.982 20.521 37.0399H21.927C22.1943 30.2207 23.998 24.3145 26.5321 18.6057L25.2505 18.0352L25.2506 18.0353ZM11.3274 18.554C10.7135 23.2368 12.057 25.9682 14.0078 26.2714L14.8317 23.2014L12.2169 19.1268C11.9337 18.9337 11.6376 18.7433 11.3273 18.5541L11.3274 18.554ZM27.9827 20.3965C27.4529 22.0672 27.1702 23.6089 27.1071 24.943L29.0904 29.0435L30.1935 26.2854L29.0459 21.7273H29.0504C28.7274 21.2881 28.3719 20.844 27.9826 20.3966L27.9827 20.3965ZM5.26465 20.5116C4.61391 26.1135 4.65402 31.6152 6.18007 37.0401H7.64018C6.07214 31.7245 6.00552 26.2981 6.65896 20.6735L5.2648 20.5116H5.26465ZM21.7487 21.3449C21.252 21.3569 20.7758 21.3854 20.3192 21.4294L16.1858 23.5675L15.3714 26.6024C17.2258 27.521 19.8732 25.8649 21.7485 21.3449H21.7487ZM37.2749 24.1191C36.5935 24.1825 35.9482 24.2733 35.3386 24.3891L31.4964 26.8088L30.3932 29.5621L34.8809 27.8862C35.7176 26.8953 36.5374 25.6273 37.275 24.1191H37.2749ZM25.4596 25.7715C24.2933 30.3485 25.3022 33.2215 27.2034 33.754L28.3841 30.8038L26.274 26.4452C26.0164 26.2199 25.7443 25.9957 25.4595 25.7715H25.4596ZM13.7636 27.6939C12.8117 30.7909 12.0917 33.8939 11.7474 37.0401H13.1604C13.4989 34.0566 14.1886 31.0893 15.1061 28.1045L13.7635 27.6938L13.7636 27.6939ZM34.0428 29.6959L29.6866 31.3249L28.5176 34.2447C30.2493 35.3787 33.0747 34.049 35.4746 29.7828C34.9793 29.7357 34.5019 29.7074 34.0428 29.696V29.6959ZM26.7761 35.228C26.6354 35.8073 26.5369 36.4115 26.5015 37.0401H27.9051C27.9389 36.5379 28.0215 36.0482 28.1399 35.5614L26.7762 35.228L26.7761 35.228Z" fill="white"/>
<path d="M50.2722 0H88.7277V38.4554H50.2722V0Z" fill="black"/>
<path d="M81.346 1.45673V8.86541L77.8823 12.3292L75.3137 9.76047L74.8175 10.2569L64.1882 20.886L72.7139 29.4115L68.7501 33.3752L68.7503 37.1539H70.1538V33.9567L73.7064 30.4041L75.3137 32.0114L86.4389 20.886L81.92 16.3672L86.9859 11.3012V1.45673H85.5823V10.7198L80.9275 15.3747L78.8746 13.3217L82.7495 9.44689V1.45673H81.346ZM51.7263 2.27601V3.67956H65.742L69.0659 7.0034C68.8736 7.33335 68.763 7.71663 68.763 8.12604C68.763 9.35947 69.7629 10.3595 70.9961 10.3595C72.2294 10.3595 73.2293 9.35947 73.2293 8.12612C73.2293 6.89284 72.2294 5.89315 70.9961 5.89315C70.685 5.89315 70.3887 5.95699 70.1195 6.07205L66.3235 2.27608H51.7263V2.27601ZM51.7263 6.44286V7.84664L61.5749 7.84686L64.8988 11.1707C64.7065 11.5006 64.5957 11.8839 64.5957 12.2933C64.5957 13.5266 65.5956 14.5265 66.8288 14.5265C68.0621 14.5265 69.062 13.5266 69.062 12.2933C69.062 11.0601 68.0622 10.0602 66.8289 10.0602C66.5177 10.0602 66.2214 10.124 65.9522 10.2391L62.1563 6.44309H51.7264L51.7263 6.44286ZM57.9893 10.61L51.7264 10.6102V12.0139L57.408 12.0137L60.7318 15.338C60.5396 15.6677 60.4289 16.0512 60.4289 16.4606C60.4289 17.6939 61.4288 18.6938 62.6621 18.6938C63.8953 18.6938 64.895 17.6939 64.895 16.4605C64.895 15.2272 63.8953 14.2272 62.6621 14.2272C62.3507 14.2272 62.0544 14.2911 61.7852 14.4062L57.9892 10.61H57.9893ZM75.3137 11.7457L84.454 20.8861L75.3137 30.026L66.1734 20.8861L75.3137 11.7458V11.7457ZM75.2196 13.8027L68.1163 20.906L75.2525 28.0424L76.245 27.0499L70.1014 20.9061L76.2122 14.7951L75.2196 13.8026V13.8027ZM51.7264 15.4219V19.268L63.7535 31.2951V37.1539H65.1573V28.8525L51.7264 15.4218V15.4219ZM77.7522 16.0526L76.7599 17.0451L80.6265 20.9118L76.7381 24.8002L77.7309 25.7926L82.6116 20.9118L77.7524 16.0525L77.7522 16.0526ZM75.5042 18.5432C74.1936 18.5432 73.1314 19.6057 73.1314 20.9162C73.1314 22.2264 74.1937 23.2888 75.5041 23.2888C76.8147 23.2888 77.877 22.2264 77.877 20.9162C77.877 19.6055 76.8147 18.5431 75.5041 18.5431L75.5042 18.5432ZM51.7263 22.1832V26.0293L58.853 33.1556V37.1538H60.2566V30.7133L51.7264 22.1832H51.7263ZM83.8259 27.6777C82.5926 27.6777 81.5928 28.6775 81.5928 29.9108C81.5928 31.1441 82.5926 32.1442 83.8259 32.1442C84.1259 32.1442 84.4119 32.0845 84.6731 31.9773L87.4236 34.7274V32.7425L85.741 31.0601C85.9429 30.7243 86.0593 30.3312 86.0593 29.9109C86.0593 28.6776 85.0593 27.6778 83.8259 27.6778V27.6777ZM51.7263 29.0061V32.8524L54.0767 35.2025L54.0766 37.154H55.4802L55.4807 32.7604L51.7263 29.0061ZM79.6592 31.8449C78.4259 31.8449 77.426 32.8447 77.426 34.0781C77.426 35.3113 78.4257 36.311 79.6591 36.311C79.923 36.311 80.176 36.2651 80.411 36.1811L81.384 37.1537H83.3691L81.5229 35.3077C81.7561 34.9549 81.8923 34.5325 81.8923 34.078C81.8923 32.8445 80.8924 31.8447 79.6591 31.8447L79.6592 31.8449Z" fill="white"/>
<path d="M100.545 0H139V38.4554H100.545V0Z" fill="black"/>
<path d="M119.772 1.72749C118.565 1.72749 117.341 2.00765 116.154 2.4966C115.994 2.98668 115.862 3.6052 115.787 4.28072C115.689 5.16625 115.657 6.13635 115.647 7.04614C118.19 6.76794 121.354 6.76794 123.898 7.04614C123.887 6.13635 123.856 5.16618 123.757 4.28065C123.682 3.60528 123.551 2.98668 123.391 2.4966C122.204 2.00765 120.98 1.72749 119.772 1.72749ZM127.325 3.17949C128.025 3.7093 128.685 4.29695 129.299 4.92455C129.414 4.42508 129.652 3.97098 129.978 3.59551L127.325 3.17949ZM114.555 3.2914C111.95 4.81009 109.669 7.25066 108.354 9.7758C105.87 14.5479 105.373 21.5645 108.315 25.9091C110.518 29.1629 115.587 30.4189 119.772 30.4189C123.958 30.4189 129.027 29.163 131.23 25.909C134.171 21.5645 133.675 14.5479 131.19 9.77572C129.875 7.25058 127.594 4.81016 124.99 3.2914C125.033 3.56554 125.069 3.8463 125.101 4.13141C125.215 5.15994 125.244 6.24924 125.252 7.2309C126.657 7.46779 127.734 7.81126 128.184 8.26191C130.588 10.6654 133.858 18.3786 129.386 25.0862C126.558 29.3283 112.987 29.3283 110.158 25.0862C105.687 18.3786 108.957 10.6654 111.36 8.26191C111.811 7.81126 112.887 7.46779 114.292 7.2309C114.3 6.24924 114.329 5.15994 114.444 4.13141C114.475 3.8463 114.511 3.56554 114.555 3.2914H114.555ZM105.351 3.6052C104.688 3.6052 104.15 4.1432 104.15 4.80693C104.15 5.00284 104.198 5.19577 104.289 5.36892C104.381 5.54207 104.514 5.69019 104.675 5.80039V10.9283L106.027 9.9143V5.79911C106.189 5.68904 106.322 5.54112 106.413 5.36821C106.505 5.19529 106.553 5.00262 106.553 4.80693C106.553 4.1432 106.015 3.6052 105.351 3.6052ZM132.301 3.8816C131.339 3.8816 130.574 4.64695 130.574 5.60909C130.574 6.57123 131.339 7.33658 132.301 7.33658C133.263 7.33658 134.029 6.57123 134.029 5.60909C134.029 4.64695 133.263 3.8816 132.301 3.8816ZM134.199 8.02795C133.675 8.44082 133.016 8.68853 132.301 8.68853C132.245 8.68853 132.19 8.6865 132.135 8.6835C132.196 8.79222 132.255 8.90163 132.314 9.01172L134.556 10.6934L134.199 8.02795ZM116.262 8.21572C114.966 8.22248 113.463 8.4979 112.263 9.42647C110.263 10.9743 109.031 18.0461 109.748 20.4496C110.994 15.8104 112.151 11.1347 117.854 8.33657C117.327 8.25399 116.795 8.21355 116.262 8.21565V8.21572ZM106.118 11.5363L103.56 13.4548L102.473 18.8932L105.34 22.3342C104.518 18.8399 104.906 14.9193 106.118 11.5363V11.5363ZM133.427 11.5363C134.638 14.9193 135.027 18.8399 134.204 22.3341L137.072 18.893L135.984 13.4546L133.427 11.5363ZM108.554 28.2355C108.285 28.3233 108.01 28.4913 107.782 28.7188C107.472 29.0294 107.28 29.4271 107.244 29.7781C107.26 29.8054 107.289 29.865 107.374 29.9405C107.558 30.1048 107.877 30.3288 108.285 30.5682C109.101 31.0474 110.279 31.6015 111.605 32.1172C113.196 32.7359 115.011 33.2967 116.693 33.6479V31.5742C113.728 31.1896 110.692 30.1978 108.554 28.2355H108.554ZM130.99 28.2355C128.853 30.1977 125.816 31.1895 122.852 31.574V33.6478C124.533 33.2966 126.349 32.7357 127.939 32.1171C129.265 31.6014 130.443 31.0473 131.26 30.5682C131.668 30.3286 131.986 30.1048 132.17 29.9403C132.255 29.8649 132.285 29.8053 132.3 29.778C132.264 29.4269 132.073 29.0292 131.762 28.7186C131.535 28.4911 131.259 28.3233 130.99 28.2353V28.2355ZM106.352 30.8396L101.896 33.81V37.1035H104.675V35.7515H106.027V37.1035H133.517V35.7515H134.869V37.1035H137.648V33.81L133.192 30.8396C133.152 30.8763 133.111 30.9125 133.071 30.949C132.776 31.2117 132.4 31.4665 131.944 31.7341C131.033 32.2688 129.807 32.8414 128.429 33.3772C125.674 34.4489 122.345 35.376 119.772 35.376C117.2 35.376 113.871 34.4489 111.115 33.3774C109.737 32.8415 108.512 32.269 107.6 31.7342C107.145 31.4668 106.769 31.2118 106.474 30.949C106.433 30.9125 106.392 30.8762 106.352 30.8395V30.8396ZM118.045 31.7095V33.8871C118.663 33.9743 119.247 34.0241 119.772 34.0241C120.297 34.0241 120.881 33.9743 121.5 33.8871V31.7095C120.912 31.7512 120.334 31.7708 119.772 31.7708C119.211 31.7708 118.632 31.7513 118.045 31.7095Z" fill="white"/>
</svg>
