<svg width="51" height="43" viewBox="0 0 51 43" fill="none" xmlns="http://www.w3.org/2000/svg">
<path d="M18.3457 13.1982V23.8438H20.8164V25.0254H18.3457V29H17.0459V25.0254H9.54785V23.8223C11.0518 22.1178 12.4697 20.3167 13.8018 18.4189C15.141 16.514 16.1901 14.7738 16.9492 13.1982H18.3457ZM17.0459 23.8438V15.3467C15.4704 18.0967 13.4688 20.929 11.041 23.8438H17.0459ZM22.6211 26.9697C23.7669 27.7432 24.9307 28.1299 26.1123 28.1299C27.3083 28.1299 28.2572 27.8291 28.959 27.2275C29.668 26.6188 30.0225 25.8024 30.0225 24.7783C30.0225 23.654 29.6286 22.8089 28.8408 22.2432C28.0531 21.6702 26.9036 21.3838 25.3926 21.3838H24.1465V20.2344H25.2744C26.6566 20.2344 27.6986 19.9587 28.4004 19.4072C29.1022 18.8558 29.4531 18.0537 29.4531 17.001C29.4531 16.0628 29.1953 15.3431 28.6797 14.8418C28.1641 14.3405 27.3942 14.0898 26.3701 14.0898C25.3245 14.0898 24.2826 14.4443 23.2441 15.1533V13.8213C24.3685 13.2269 25.5 12.9297 26.6387 12.9297C27.8776 12.9297 28.8838 13.2663 29.6572 13.9395C30.4307 14.6126 30.8174 15.5186 30.8174 16.6572C30.8174 18.777 29.779 20.127 27.7021 20.707V20.7607C28.8265 20.8825 29.7181 21.2943 30.377 21.9961C31.043 22.6979 31.376 23.5752 31.376 24.6279C31.376 26.0316 30.8818 27.1595 29.8936 28.0117C28.9053 28.8568 27.6341 29.2793 26.0801 29.2793C24.8053 29.2793 23.6523 28.9964 22.6211 28.4307V26.9697Z" fill="white"/>
<path d="M21.0137 42.0274C25.1698 42.0274 29.2326 40.795 32.6883 38.4859C36.144 36.1769 38.8374 32.895 40.4279 29.0553C42.0183 25.2155 42.4345 20.9904 41.6236 16.9141C40.8128 12.8378 38.8114 9.09355 35.8726 6.15474C33.9213 4.20344 31.6047 2.65559 29.0552 1.59956C26.5057 0.543527 23.7732 -4.07598e-06 21.0136 0C15.4405 8.23188e-06 10.0956 2.21395 6.15474 6.15479C2.21392 10.0956 -8.23184e-06 15.4405 0 21.0137C8.23188e-06 26.5869 2.21395 31.9318 6.15479 35.8726C8.10155 37.83 10.4172 39.3819 12.9677 40.4383C15.5183 41.4948 18.253 42.0349 21.0137 42.0274ZM21.0137 2.80926C31.0516 2.80926 39.2181 10.9757 39.2181 21.0136C39.2181 31.0516 31.0516 39.2181 21.0137 39.2181C10.9757 39.2181 2.80931 31.0517 2.80931 21.0136C2.80931 10.9756 10.9757 2.80926 21.0137 2.80926Z" fill="#098C26"/>
</svg>
