<svg width="58" height="33" viewBox="0 0 58 33" fill="none" xmlns="http://www.w3.org/2000/svg">
<path d="M52.2916 14.9309H30.4382C29.726 14.9309 29.1487 15.5083 29.1487 16.2204V16.3562C29.1487 17.0683 29.726 17.6457 30.4382 17.6457H52.2916C53.0038 17.6457 53.5811 17.0683 53.5811 16.3562V16.2204C53.5811 15.5083 53.0038 14.9309 52.2916 14.9309Z" fill="white"/>
<path d="M52.2916 21.7177H30.4382C29.726 21.7177 29.1487 22.2951 29.1487 23.0072V23.143C29.1487 23.8551 29.726 24.4325 30.4382 24.4325H52.2916C53.0038 24.4325 53.5811 23.8551 53.5811 23.143V23.0072C53.5811 22.2951 53.0038 21.7177 52.2916 21.7177Z" fill="white"/>
<path d="M52.2916 8.14413H30.4382C29.726 8.14413 29.1487 8.72146 29.1487 9.43362V9.56936C29.1487 10.2815 29.726 10.8589 30.4382 10.8589H52.2916C53.0038 10.8589 53.5811 10.2815 53.5811 9.56936V9.43362C53.5811 8.72146 53.0038 8.14413 52.2916 8.14413Z" fill="white"/>
<path fill-rule="evenodd" clip-rule="evenodd" d="M12.0299 12.8657C8.70792 12.8657 6.01494 10.1728 6.01494 6.85081C6.01494 3.52886 8.70792 0.835876 12.0299 0.835876C15.3518 0.835876 18.0448 3.52886 18.0448 6.85081C18.0448 10.1728 15.3518 12.8657 12.0299 12.8657ZM28.0697 12.8657C24.7477 12.8657 22.0548 10.1728 22.0548 6.85081C22.0548 3.52886 24.7477 0.835876 28.0697 0.835876C31.3917 0.835876 34.0846 3.52886 34.0846 6.85081C34.0846 10.1728 31.3917 12.8657 28.0697 12.8657ZM12.0299 16.8757C16.8205 16.8757 21.1207 18.9759 24.0597 22.3059V24.8956H0C0 24.1227 0 23.2594 0 22.3059C2.93908 18.9759 7.23921 16.8757 12.0299 16.8757ZM28.0697 24.8956V20.7894L27.0662 19.6524C26.2956 18.7793 25.4564 17.9801 24.5592 17.261C25.689 17.0088 26.8638 16.8757 28.0697 16.8757C32.8604 16.8757 37.1605 18.9759 40.0996 22.3059V24.8956H28.0697Z" fill="#FF0000"/>
</svg>
